# Blender v2.79 (sub 0) OBJ File: 'scenarioblend.blend'
# www.blender.org
v 1.477003 1.736569 1.346614
v 1.477003 2.031157 1.327961
v 1.506498 1.736569 1.352481
v 1.513636 2.031157 1.335248
v 1.531502 1.736569 1.369188
v 1.544692 2.031157 1.355999
v 1.548210 1.736569 1.394193
v 1.565443 2.031157 1.387055
v 1.554077 1.736569 1.423688
v 1.572729 2.031157 1.423688
v 1.548210 1.736569 1.453183
v 1.565443 2.031157 1.460321
v 1.531502 1.736569 1.478188
v 1.544692 2.031157 1.491377
v 1.506498 1.736569 1.494895
v 1.513636 2.031157 1.512128
v 1.477003 1.736569 1.500762
v 1.477003 2.031157 1.519415
v 1.447508 1.736569 1.494895
v 1.440370 2.031157 1.512128
v 1.422503 1.736569 1.478188
v 1.409314 2.031157 1.491377
v 1.405795 1.736569 1.453183
v 1.388563 2.031157 1.460321
v 1.399928 1.736569 1.423688
v 1.381276 2.031157 1.423688
v 1.405795 1.736569 1.394193
v 1.388563 2.031157 1.387055
v 1.422503 1.736569 1.369188
v 1.409314 2.031157 1.355999
v 1.447508 1.736569 1.352481
v 1.440370 2.031157 1.335248
v 1.516156 2.031157 1.329164
v 1.477003 2.031157 1.321376
v 1.549348 2.031157 1.351342
v 1.571527 2.031157 1.384535
v 1.579315 2.031157 1.423688
v 1.571527 2.031157 1.462841
v 1.549348 2.031157 1.496034
v 1.516156 2.031157 1.518212
v 1.477003 2.031157 1.526000
v 1.437850 2.031157 1.518212
v 1.404657 2.031157 1.496034
v 1.382479 2.031157 1.462841
v 1.374691 2.031157 1.423688
v 1.382479 2.031157 1.384535
v 1.404657 2.031157 1.351342
v 1.437850 2.031157 1.329164
v 1.504599 1.740901 1.357064
v 1.477003 1.740901 1.351575
v 1.527995 1.740901 1.372696
v 1.543627 1.740901 1.396091
v 1.549116 1.740901 1.423688
v 1.543627 1.740901 1.451285
v 1.527995 1.740901 1.474680
v 1.504599 1.740901 1.490312
v 1.477003 1.740901 1.495801
v 1.449406 1.740901 1.490312
v 1.426011 1.740901 1.474680
v 1.410379 1.740901 1.451285
v 1.404889 1.740901 1.423688
v 1.410379 1.740901 1.396091
v 1.426011 1.740901 1.372696
v 1.449406 1.740901 1.357064
vn 0.1944 -0.0837 -0.9773
vn 0.5536 -0.0837 -0.8286
vn 0.8286 -0.0837 -0.5536
vn 0.9773 -0.0837 -0.1944
vn 0.9773 -0.0837 0.1944
vn 0.8285 -0.0837 0.5536
vn 0.5536 -0.0837 0.8285
vn 0.1944 -0.0837 0.9773
vn -0.1944 -0.0837 0.9773
vn -0.5536 -0.0837 0.8286
vn -0.8285 -0.0837 0.5536
vn -0.9773 -0.0837 0.1944
vn -0.9773 -0.0837 -0.1944
vn -0.8285 -0.0837 -0.5536
vn -0.9777 0.0795 -0.1945
vn -0.5536 -0.0837 -0.8285
vn -0.1944 -0.0837 -0.9773
vn 0.0000 -1.0000 0.0000
vn 0.0000 1.0000 0.0000
vn 0.9777 0.0795 0.1945
vn -0.8288 0.0795 -0.5538
vn 0.8288 0.0795 0.5538
vn -0.5538 0.0795 -0.8288
vn 0.5538 0.0795 0.8288
vn -0.1945 0.0795 -0.9777
vn -0.1945 0.0795 0.9777
vn 0.1945 0.0795 0.9777
vn 0.1945 0.0795 -0.9777
vn -0.5538 0.0795 0.8288
vn 0.5538 0.0795 -0.8288
vn -0.8288 0.0795 0.5538
vn 0.8288 0.0795 -0.5538
vn -0.9777 0.0795 0.1945
vn 0.9777 0.0795 -0.1945
vn 0.5536 -0.0837 -0.8285
vn 0.8285 -0.0837 -0.5536
vn 0.5536 -0.0837 0.8286
vn -0.5536 -0.0837 0.8285
vn -0.5536 -0.0837 -0.8286
s off
f 34//1 3//1 1//1
f 33//2 5//2 3//2
f 35//3 7//3 5//3
f 36//4 9//4 7//4
f 37//5 11//5 9//5
f 38//6 13//6 11//6
f 39//7 15//7 13//7
f 40//8 17//8 15//8
f 17//9 42//9 19//9
f 42//10 21//10 19//10
f 43//11 23//11 21//11
f 44//12 25//12 23//12
f 45//13 27//13 25//13
f 46//14 29//14 27//14
f 10//15 54//15 12//15
f 47//16 31//16 29//16
f 48//17 1//17 31//17
f 15//18 23//18 31//18
f 4//19 34//19 2//19
f 4//19 35//19 33//19
f 8//19 35//19 6//19
f 10//19 36//19 8//19
f 10//19 38//19 37//19
f 14//19 38//19 12//19
f 16//19 39//19 14//19
f 18//19 40//19 16//19
f 20//19 41//19 18//19
f 22//19 42//19 20//19
f 22//19 44//19 43//19
f 26//19 44//19 24//19
f 28//19 45//19 26//19
f 30//19 46//19 28//19
f 32//19 47//19 30//19
f 32//19 34//19 48//19
f 59//19 55//19 51//19
f 26//20 62//20 28//20
f 12//21 55//21 14//21
f 28//22 63//22 30//22
f 14//23 56//23 16//23
f 30//24 64//24 32//24
f 16//25 57//25 18//25
f 2//26 49//26 4//26
f 32//27 50//27 2//27
f 18//28 58//28 20//28
f 4//29 51//29 6//29
f 20//30 59//30 22//30
f 6//31 52//31 8//31
f 24//32 59//32 60//32
f 8//33 53//33 10//33
f 24//34 61//34 26//34
f 34//1 33//1 3//1
f 33//35 35//35 5//35
f 35//36 36//36 7//36
f 36//4 37//4 9//4
f 37//5 38//5 11//5
f 38//6 39//6 13//6
f 39//37 40//37 15//37
f 40//8 41//8 17//8
f 17//9 41//9 42//9
f 42//38 43//38 21//38
f 43//11 44//11 23//11
f 44//12 45//12 25//12
f 45//13 46//13 27//13
f 46//14 47//14 29//14
f 10//15 53//15 54//15
f 47//39 48//39 31//39
f 48//17 34//17 1//17
f 31//18 1//18 3//18
f 3//18 5//18 7//18
f 7//18 9//18 11//18
f 11//18 13//18 7//18
f 13//18 15//18 7//18
f 15//18 17//18 19//18
f 19//18 21//18 23//18
f 23//18 25//18 27//18
f 27//18 29//18 23//18
f 29//18 31//18 23//18
f 31//18 3//18 7//18
f 15//18 19//18 23//18
f 31//18 7//18 15//18
f 4//19 33//19 34//19
f 4//19 6//19 35//19
f 8//19 36//19 35//19
f 10//19 37//19 36//19
f 10//19 12//19 38//19
f 14//19 39//19 38//19
f 16//19 40//19 39//19
f 18//19 41//19 40//19
f 20//19 42//19 41//19
f 22//19 43//19 42//19
f 22//19 24//19 44//19
f 26//19 45//19 44//19
f 28//19 46//19 45//19
f 30//19 47//19 46//19
f 32//19 48//19 47//19
f 32//19 2//19 34//19
f 51//19 49//19 63//19
f 49//19 50//19 63//19
f 50//19 64//19 63//19
f 63//19 62//19 61//19
f 61//19 60//19 59//19
f 59//19 58//19 57//19
f 57//19 56//19 59//19
f 56//19 55//19 59//19
f 55//19 54//19 53//19
f 53//19 52//19 51//19
f 63//19 61//19 59//19
f 55//19 53//19 51//19
f 51//19 63//19 59//19
f 26//20 61//20 62//20
f 12//21 54//21 55//21
f 28//22 62//22 63//22
f 14//23 55//23 56//23
f 30//24 63//24 64//24
f 16//25 56//25 57//25
f 2//26 50//26 49//26
f 32//27 64//27 50//27
f 18//28 57//28 58//28
f 4//29 49//29 51//29
f 20//30 58//30 59//30
f 6//31 51//31 52//31
f 24//32 22//32 59//32
f 8//33 52//33 53//33
f 24//34 60//34 61//34
