# Blender v2.79 (sub 0) OBJ File: 'scenarioblend.blend'
# www.blender.org
v 1.287378 2.383343 -2.917131
v 1.380763 2.384249 -2.949395
v 1.287530 2.373863 -2.915458
v 1.381103 2.363003 -2.945645
v 1.287948 2.365747 -2.910295
v 1.382039 2.344815 -2.934073
v 1.288568 2.360232 -2.902427
v 1.383428 2.332453 -2.916441
v 1.289295 2.358156 -2.893054
v 1.385059 2.327801 -2.895434
v 1.290020 2.359837 -2.883602
v 1.386683 2.331567 -2.874249
v 1.290631 2.365017 -2.875510
v 1.388053 2.343177 -2.856112
v 1.291036 2.372908 -2.870009
v 1.388961 2.360863 -2.843785
v 1.291173 2.382309 -2.867938
v 1.389268 2.381933 -2.839143
v 1.291022 2.391790 -2.869611
v 1.388928 2.403180 -2.842893
v 1.290604 2.399905 -2.874774
v 1.387992 2.421369 -2.854465
v 1.289984 2.405421 -2.882642
v 1.386603 2.433730 -2.872097
v 1.289257 2.407496 -2.892015
v 1.384972 2.438381 -2.893104
v 1.288532 2.405816 -2.901467
v 1.383348 2.434616 -2.914289
v 1.287920 2.400636 -2.909560
v 1.381978 2.423006 -2.932425
v 1.287515 2.392744 -2.915060
v 1.381070 2.405320 -2.944753
v 1.340882 2.384154 -2.946321
v 1.341222 2.362907 -2.942570
v 1.342158 2.344718 -2.930998
v 1.343547 2.332357 -2.913366
v 1.345178 2.327706 -2.892359
v 1.346802 2.331471 -2.871174
v 1.348172 2.343081 -2.853038
v 1.349080 2.360767 -2.840710
v 1.349387 2.381838 -2.836068
v 1.349047 2.403084 -2.839818
v 1.348111 2.421273 -2.851390
v 1.346722 2.433634 -2.869022
v 1.345091 2.438286 -2.890029
v 1.343467 2.434520 -2.911214
v 1.342097 2.422910 -2.929351
v 1.341189 2.405224 -2.941679
vn -0.0753 -0.1745 -0.9818
vn -0.0635 -0.5380 -0.8405
vn -0.0421 -0.8196 -0.5713
vn -0.0142 -0.9765 -0.2151
vn 0.0158 -0.9847 0.1738
vn 0.0434 -0.8429 0.5363
vn 0.0644 -0.5728 0.8171
vn 0.0756 -0.2156 0.9736
vn 0.0753 0.1745 0.9818
vn 0.0635 0.5380 0.8405
vn 0.0421 0.8196 0.5713
vn 0.0142 0.9765 0.2151
vn -0.0158 0.9847 -0.1738
vn -0.0434 0.8429 -0.5363
vn 0.9970 0.0024 -0.0769
vn -0.0644 0.5729 -0.8171
vn -0.0756 0.2156 -0.9736
vn -0.9970 -0.0024 0.0769
vn -0.4719 0.1963 -0.8595
vn -0.4735 0.5199 -0.7110
vn -0.4751 0.7570 -0.4486
vn -0.4763 0.8713 -0.1184
vn -0.4766 0.8498 0.2252
vn -0.4762 0.7020 0.5296
vn -0.4753 0.4548 0.7532
vn -0.4742 0.1457 0.8683
vn -0.4732 -0.1830 0.8617
vn -0.4726 -0.4875 0.7342
vn -0.4721 -0.7259 0.5003
vn -0.4717 -0.8612 0.1892
vn -0.4712 -0.8682 -0.1557
vn -0.4707 -0.7395 -0.4814
vn -0.4705 -0.4908 -0.7333
vn -0.4708 -0.1607 -0.8675
vn -0.0421 -0.8197 -0.5713
vn 0.0644 -0.5729 0.8171
vn -0.9970 -0.0024 0.0768
vn -0.9970 -0.0025 0.0769
vn -0.4719 0.1962 -0.8595
vn -0.4751 0.7569 -0.4487
vn -0.4763 0.8713 -0.1183
vn -0.4762 0.7019 0.5296
vn -0.4733 -0.1829 0.8617
vn -0.4721 -0.7258 0.5003
vn -0.4717 -0.8612 0.1893
vn -0.4711 -0.8682 -0.1557
vn -0.4707 -0.7395 -0.4813
s off
f 2//1 34//1 33//1
f 4//2 35//2 34//2
f 6//3 36//3 35//3
f 8//4 37//4 36//4
f 10//5 38//5 37//5
f 12//6 39//6 38//6
f 14//7 40//7 39//7
f 16//8 41//8 40//8
f 18//9 42//9 41//9
f 20//10 43//10 42//10
f 22//11 44//11 43//11
f 24//12 45//12 44//12
f 26//13 46//13 45//13
f 28//14 47//14 46//14
f 6//15 30//15 22//15
f 30//16 48//16 47//16
f 32//17 33//17 48//17
f 15//18 23//18 31//18
f 31//19 33//19 1//19
f 29//20 48//20 31//20
f 27//21 47//21 29//21
f 25//22 46//22 27//22
f 23//23 45//23 25//23
f 21//24 44//24 23//24
f 19//25 43//25 21//25
f 17//26 42//26 19//26
f 40//27 17//27 15//27
f 39//28 15//28 13//28
f 38//29 13//29 11//29
f 37//30 11//30 9//30
f 36//31 9//31 7//31
f 35//32 7//32 5//32
f 34//33 5//33 3//33
f 33//34 3//34 1//34
f 2//1 4//1 34//1
f 4//2 6//2 35//2
f 6//35 8//35 36//35
f 8//4 10//4 37//4
f 10//5 12//5 38//5
f 12//6 14//6 39//6
f 14//36 16//36 40//36
f 16//8 18//8 41//8
f 18//9 20//9 42//9
f 20//10 22//10 43//10
f 22//11 24//11 44//11
f 24//12 26//12 45//12
f 26//13 28//13 46//13
f 28//14 30//14 47//14
f 6//15 4//15 2//15
f 2//15 32//15 30//15
f 30//15 28//15 26//15
f 26//15 24//15 22//15
f 22//15 20//15 18//15
f 18//15 16//15 14//15
f 14//15 12//15 10//15
f 10//15 8//15 14//15
f 8//15 6//15 14//15
f 6//15 2//15 30//15
f 30//15 26//15 22//15
f 22//15 18//15 6//15
f 18//15 14//15 6//15
f 30//16 32//16 48//16
f 32//17 2//17 33//17
f 31//37 1//37 3//37
f 3//18 5//18 7//18
f 7//18 9//18 15//18
f 9//18 11//18 15//18
f 11//38 13//38 15//38
f 15//37 17//37 19//37
f 19//18 21//18 23//18
f 23//18 25//18 27//18
f 27//38 29//38 31//38
f 31//18 3//18 15//18
f 3//18 7//18 15//18
f 15//18 19//18 23//18
f 23//18 27//18 31//18
f 31//39 48//39 33//39
f 29//20 47//20 48//20
f 27//40 46//40 47//40
f 25//41 45//41 46//41
f 23//23 44//23 45//23
f 21//42 43//42 44//42
f 19//25 42//25 43//25
f 17//26 41//26 42//26
f 40//43 41//43 17//43
f 39//28 40//28 15//28
f 38//44 39//44 13//44
f 37//45 38//45 11//45
f 36//46 37//46 9//46
f 35//47 36//47 7//47
f 34//33 35//33 5//33
f 33//34 34//34 3//34
v -0.630583 2.048426 -1.961418
v -0.592527 2.723580 -1.996749
v -0.630583 2.048426 -3.818250
v -0.592527 2.723580 -3.782918
v 1.226331 2.048426 -1.961418
v 1.188276 2.723580 -1.996749
v 1.226331 2.048426 -3.818250
v 1.188276 2.723580 -3.782918
v 1.286919 2.723580 -3.818250
v 1.286919 2.048426 -3.818250
v 1.286919 2.048426 -1.961418
v 1.286919 2.723580 -1.961418
v 1.226331 2.804516 -3.818250
v 1.226331 2.804516 -1.961418
v 1.286919 2.804516 -3.818250
v 1.286919 2.804516 -1.961418
v -0.630583 2.723580 -1.961418
v -0.630583 2.723580 -3.818250
v 1.226331 2.723580 -3.818250
v 1.226331 2.723580 -1.961418
v -0.592527 2.057298 -1.996749
v -0.592527 2.057298 -3.782918
v 1.188276 2.057298 -3.782918
v 1.188276 2.057298 -1.996749
vn -1.0000 0.0000 0.0000
vn 0.0000 0.0000 -1.0000
vn 0.0000 0.0000 1.0000
vn 0.0000 -1.0000 0.0000
vn 1.0000 0.0000 0.0000
vn 0.0000 1.0000 0.0000
s off
f 65//48 51//48 49//48
f 66//49 55//49 51//49
f 60//50 62//50 68//50
f 68//50 49//50 53//50
f 55//51 49//51 51//51
f 56//48 72//48 54//48
f 57//52 59//52 58//52
f 67//49 58//49 55//49
f 53//50 60//50 68//50
f 55//51 59//51 53//51
f 62//53 63//53 61//53
f 57//52 64//52 60//52
f 68//48 61//48 67//48
f 67//49 63//49 57//49
f 52//53 65//53 50//53
f 56//53 66//53 52//53
f 54//53 67//53 56//53
f 50//53 68//53 54//53
f 70//53 72//53 71//53
f 50//52 70//52 52//52
f 54//49 69//49 50//49
f 52//50 71//50 56//50
f 65//48 66//48 51//48
f 66//49 67//49 55//49
f 60//50 64//50 62//50
f 68//50 65//50 49//50
f 55//51 53//51 49//51
f 56//48 71//48 72//48
f 57//52 60//52 59//52
f 67//49 57//49 58//49
f 53//50 59//50 60//50
f 55//51 58//51 59//51
f 62//53 64//53 63//53
f 57//52 63//52 64//52
f 68//48 62//48 61//48
f 67//49 61//49 63//49
f 52//53 66//53 65//53
f 56//53 67//53 66//53
f 54//53 68//53 67//53
f 50//53 65//53 68//53
f 70//53 69//53 72//53
f 50//52 69//52 70//52
f 54//49 72//49 69//49
f 52//50 70//50 71//50
v 1.000000 0.009549 -3.889885
v 1.000000 0.009549 -1.889885
v -1.000000 0.009549 -1.889886
v -1.000000 0.009549 -3.889886
v 1.000000 2.919236 -3.889885
v 0.999999 2.919236 -1.889885
v -1.000000 2.919236 -1.889886
v -1.000000 2.919236 -3.889885
v 1.000000 0.403582 -3.831749
v 1.000000 0.403582 -1.948022
v -1.000000 0.336996 -1.889886
v -1.000000 0.336996 -3.889886
v 1.000000 2.738715 -3.833685
v 0.999999 2.738715 -1.946084
v -1.000000 2.795009 -1.889886
v -1.000000 2.795009 -3.889885
v 1.000000 1.218422 -3.835160
v 1.000000 2.031965 -3.833685
v 1.000000 1.218422 -1.944610
v 1.000000 2.031965 -1.946085
v -1.000000 1.156334 -1.889886
v -1.000000 1.975671 -1.889886
v -1.000000 1.156334 -3.889886
v -1.000000 1.975671 -3.889885
v 1.000000 1.913583 -3.835160
v 1.000000 2.795009 -3.889885
v 1.000000 1.913583 -1.944610
v 0.999999 2.795009 -1.889885
v 1.000000 1.089748 -3.831749
v 1.000000 1.975671 -3.889885
v 1.000000 1.089748 -1.948022
v 1.000000 1.975671 -1.889885
v 1.000000 0.336996 -3.889885
v 1.000000 0.336996 -1.889885
v 1.000000 1.156334 -3.889885
v 1.000000 1.156334 -1.889885
v -0.848561 2.031965 -3.833686
v -0.848560 2.738715 -3.833686
v -0.848562 2.738715 -1.946085
v -0.848561 2.031965 -1.946085
v -0.848561 0.403582 -3.831749
v -0.848561 1.089748 -3.831749
v -0.848561 1.089748 -1.948022
v -0.848561 0.403582 -1.948022
v -0.848561 1.218422 -3.835160
v -0.848561 1.913583 -3.835160
v -0.848561 1.913583 -1.944611
v -0.848561 1.218422 -1.944611
vn 0.0000 -1.0000 0.0000
vn 0.0000 1.0000 0.0000
vn 1.0000 0.0000 0.0000
vn -0.0000 0.0000 1.0000
vn -1.0000 0.0000 -0.0000
vn 0.0000 0.0000 -1.0000
s off
f 74//54 76//54 73//54
f 80//55 78//55 77//55
f 77//56 100//56 98//56
f 78//57 87//57 100//57
f 79//58 88//58 87//58
f 73//59 84//59 105//59
f 105//59 95//59 107//59
f 83//58 76//58 75//58
f 106//57 75//57 74//57
f 73//56 106//56 74//56
f 98//59 80//59 77//59
f 87//58 96//58 94//58
f 100//57 94//57 104//57
f 108//57 83//57 106//57
f 104//57 93//57 108//57
f 93//58 84//58 83//58
f 93//58 96//58 95//58
f 98//59 96//59 88//59
f 107//59 96//59 102//59
f 90//56 98//56 85//56
f 86//56 104//56 92//56
f 85//56 100//56 86//56
f 92//56 102//56 90//56
f 89//56 102//56 97//56
f 99//56 108//56 91//56
f 89//56 108//56 107//56
f 97//56 104//56 99//56
f 81//56 106//56 105//56
f 81//56 107//56 101//56
f 103//56 106//56 82//56
f 101//56 108//56 103//56
f 110//56 112//56 109//56
f 110//57 90//57 85//57
f 86//54 110//54 85//54
f 112//59 86//59 92//59
f 109//55 92//55 90//55
f 114//56 116//56 113//56
f 114//57 81//57 101//57
f 103//54 114//54 101//54
f 116//59 103//59 82//59
f 81//55 116//55 82//55
f 118//56 120//56 117//56
f 118//57 89//57 97//57
f 99//54 118//54 97//54
f 120//59 99//59 91//59
f 117//55 91//55 89//55
f 74//54 75//54 76//54
f 80//55 79//55 78//55
f 77//56 78//56 100//56
f 78//57 79//57 87//57
f 79//58 80//58 88//58
f 73//59 76//59 84//59
f 105//59 84//59 95//59
f 83//58 84//58 76//58
f 106//57 83//57 75//57
f 73//56 105//56 106//56
f 98//59 88//59 80//59
f 87//58 88//58 96//58
f 100//57 87//57 94//57
f 108//57 93//57 83//57
f 104//57 94//57 93//57
f 93//58 95//58 84//58
f 93//58 94//58 96//58
f 98//59 102//59 96//59
f 107//59 95//59 96//59
f 90//56 102//56 98//56
f 86//56 100//56 104//56
f 85//56 98//56 100//56
f 92//56 104//56 102//56
f 89//56 107//56 102//56
f 99//56 104//56 108//56
f 89//56 91//56 108//56
f 97//56 102//56 104//56
f 81//56 82//56 106//56
f 81//56 105//56 107//56
f 103//56 108//56 106//56
f 101//56 107//56 108//56
f 110//56 111//56 112//56
f 110//57 109//57 90//57
f 86//54 111//54 110//54
f 112//59 111//59 86//59
f 109//55 112//55 92//55
f 114//56 115//56 116//56
f 114//57 113//57 81//57
f 103//54 115//54 114//54
f 116//59 115//59 103//59
f 81//55 113//55 116//55
f 118//56 119//56 120//56
f 118//57 117//57 89//57
f 99//54 119//54 118//54
f 120//59 119//59 99//59
f 117//55 120//55 91//55
v -0.821685 1.228484 -1.961418
v -0.821685 1.903638 -1.961418
v -0.821685 1.228484 -3.818250
v -0.821685 1.903638 -3.818250
v 1.035230 1.228484 -1.961418
v 1.035230 1.903638 -1.961418
v 1.035230 1.228484 -3.818250
v 1.035230 1.903638 -3.818250
v 1.095817 1.903638 -3.818250
v 1.095817 1.228484 -3.818250
v 1.095817 1.228484 -1.961418
v 1.095817 1.903638 -1.961418
v 1.035230 1.984573 -3.818250
v 1.035230 1.984573 -1.961418
v 1.095817 1.984573 -3.818250
v 1.095817 1.984573 -1.961418
vn -1.0000 0.0000 0.0000
vn 0.0000 0.0000 -1.0000
vn 0.0000 0.0000 1.0000
vn 0.0000 -1.0000 0.0000
vn 0.0000 1.0000 0.0000
vn 1.0000 0.0000 0.0000
s off
f 122//60 123//60 121//60
f 124//61 127//61 123//61
f 132//62 134//62 126//62
f 126//62 121//62 125//62
f 127//63 121//63 123//63
f 124//64 126//64 128//64
f 129//65 131//65 130//65
f 128//61 130//61 127//61
f 125//62 132//62 126//62
f 127//63 131//63 125//63
f 134//64 135//64 133//64
f 129//65 136//65 132//65
f 126//60 133//60 128//60
f 128//61 135//61 129//61
f 122//60 124//60 123//60
f 124//61 128//61 127//61
f 132//62 136//62 134//62
f 126//62 122//62 121//62
f 127//63 125//63 121//63
f 124//64 122//64 126//64
f 129//65 132//65 131//65
f 128//61 129//61 130//61
f 125//62 131//62 132//62
f 127//63 130//63 131//63
f 134//64 136//64 135//64
f 129//65 135//65 136//65
f 126//60 134//60 133//60
f 128//61 133//61 135//61
v -0.821685 0.408221 -1.961418
v -0.821685 1.083375 -1.961418
v -0.821685 0.408221 -3.818250
v -0.821685 1.083375 -3.818250
v 1.035230 0.408221 -1.961418
v 1.035230 1.083375 -1.961418
v 1.035230 0.408221 -3.818250
v 1.035230 1.083375 -3.818250
v 1.095817 1.083375 -3.818250
v 1.095817 0.408221 -3.818250
v 1.095817 0.408221 -1.961418
v 1.095817 1.083375 -1.961418
v 1.035230 1.164310 -3.818250
v 1.035230 1.164310 -1.961418
v 1.095817 1.164310 -3.818250
v 1.095817 1.164310 -1.961418
vn -1.0000 0.0000 0.0000
vn 0.0000 0.0000 -1.0000
vn 0.0000 0.0000 1.0000
vn 0.0000 -1.0000 0.0000
vn 0.0000 1.0000 0.0000
vn 1.0000 0.0000 0.0000
s off
f 138//66 139//66 137//66
f 140//67 143//67 139//67
f 148//68 150//68 142//68
f 142//68 137//68 141//68
f 143//69 137//69 139//69
f 140//70 142//70 144//70
f 145//71 147//71 146//71
f 144//67 146//67 143//67
f 141//68 148//68 142//68
f 143//69 147//69 141//69
f 150//70 151//70 149//70
f 145//71 152//71 148//71
f 142//66 149//66 144//66
f 144//67 151//67 145//67
f 138//66 140//66 139//66
f 140//67 144//67 143//67
f 148//68 152//68 150//68
f 142//68 138//68 137//68
f 143//69 141//69 137//69
f 140//70 138//70 142//70
f 145//71 148//71 147//71
f 144//67 145//67 146//67
f 141//68 147//68 148//68
f 143//69 146//69 147//69
f 150//70 152//70 151//70
f 145//71 151//71 152//71
f 142//66 150//66 149//66
f 144//67 149//67 151//67
v 1.096277 1.585433 -2.917131
v 1.189661 1.586340 -2.949395
v 1.096428 1.575953 -2.915458
v 1.190001 1.565094 -2.945645
v 1.096846 1.567838 -2.910295
v 1.190937 1.546905 -2.934073
v 1.097466 1.562323 -2.902427
v 1.192326 1.534544 -2.916441
v 1.098193 1.560247 -2.893054
v 1.193957 1.529892 -2.895434
v 1.098918 1.561927 -2.883602
v 1.195581 1.533658 -2.874249
v 1.099530 1.567107 -2.875510
v 1.196951 1.545267 -2.856112
v 1.099935 1.574999 -2.870009
v 1.197859 1.562954 -2.843785
v 1.100072 1.584400 -2.867938
v 1.198166 1.584024 -2.839143
v 1.099920 1.593880 -2.869611
v 1.197826 1.605271 -2.842893
v 1.099502 1.601996 -2.874774
v 1.196890 1.623459 -2.854465
v 1.098882 1.607511 -2.882642
v 1.195501 1.635820 -2.872097
v 1.098155 1.609587 -2.892015
v 1.193870 1.640472 -2.893104
v 1.097430 1.607906 -2.901467
v 1.192246 1.636707 -2.914289
v 1.096819 1.602726 -2.909560
v 1.190876 1.625097 -2.932425
v 1.096414 1.594835 -2.915060
v 1.189968 1.607411 -2.944753
v 1.149780 1.586244 -2.946321
v 1.150120 1.564998 -2.942570
v 1.151056 1.546809 -2.930998
v 1.152445 1.534448 -2.913366
v 1.154076 1.529796 -2.892359
v 1.155700 1.533562 -2.871174
v 1.157070 1.545171 -2.853038
v 1.157978 1.562858 -2.840710
v 1.158285 1.583928 -2.836068
v 1.157945 1.605175 -2.839818
v 1.157009 1.623363 -2.851390
v 1.155620 1.635724 -2.869022
v 1.153989 1.640376 -2.890029
v 1.152365 1.636611 -2.911214
v 1.150995 1.625001 -2.929351
v 1.150087 1.607315 -2.941679
vn -0.0753 -0.1745 -0.9818
vn -0.0635 -0.5380 -0.8405
vn -0.0421 -0.8196 -0.5713
vn -0.0142 -0.9765 -0.2151
vn 0.0158 -0.9847 0.1738
vn 0.0434 -0.8429 0.5363
vn 0.0644 -0.5728 0.8171
vn 0.0756 -0.2156 0.9736
vn 0.0753 0.1745 0.9818
vn 0.0635 0.5380 0.8405
vn 0.0421 0.8197 0.5713
vn 0.0142 0.9765 0.2151
vn -0.0158 0.9847 -0.1738
vn -0.0434 0.8429 -0.5363
vn 0.9970 0.0024 -0.0769
vn -0.0644 0.5729 -0.8171
vn -0.0756 0.2156 -0.9736
vn -0.9970 -0.0024 0.0769
vn -0.4719 0.1963 -0.8595
vn -0.4735 0.5199 -0.7110
vn -0.4751 0.7570 -0.4486
vn -0.4763 0.8713 -0.1183
vn -0.4767 0.8498 0.2252
vn -0.4762 0.7019 0.5296
vn -0.4752 0.4548 0.7532
vn -0.4742 0.1457 0.8683
vn -0.4732 -0.1830 0.8617
vn -0.4726 -0.4875 0.7342
vn -0.4721 -0.7258 0.5003
vn -0.4717 -0.8612 0.1892
vn -0.4712 -0.8682 -0.1557
vn -0.4707 -0.7395 -0.4813
vn -0.4705 -0.4908 -0.7333
vn -0.4708 -0.1607 -0.8675
vn -0.0421 -0.8197 -0.5713
vn 0.0644 -0.5729 0.8171
vn 0.0421 0.8196 0.5713
vn -0.9970 -0.0024 0.0768
vn -0.9970 -0.0025 0.0769
vn -0.4719 0.1962 -0.8595
vn -0.4751 0.7569 -0.4487
vn -0.4763 0.8713 -0.1184
vn -0.4766 0.8498 0.2252
vn -0.4762 0.7020 0.5296
vn -0.4753 0.4548 0.7532
vn -0.4732 -0.1829 0.8617
s off
f 154//72 186//72 185//72
f 156//73 187//73 186//73
f 158//74 188//74 187//74
f 160//75 189//75 188//75
f 162//76 190//76 189//76
f 164//77 191//77 190//77
f 166//78 192//78 191//78
f 168//79 193//79 192//79
f 170//80 194//80 193//80
f 172//81 195//81 194//81
f 174//82 196//82 195//82
f 176//83 197//83 196//83
f 178//84 198//84 197//84
f 180//85 199//85 198//85
f 158//86 182//86 174//86
f 182//87 200//87 199//87
f 184//88 185//88 200//88
f 167//89 175//89 183//89
f 183//90 185//90 153//90
f 181//91 200//91 183//91
f 179//92 199//92 181//92
f 177//93 198//93 179//93
f 175//94 197//94 177//94
f 173//95 196//95 175//95
f 171//96 195//96 173//96
f 169//97 194//97 171//97
f 192//98 169//98 167//98
f 191//99 167//99 165//99
f 190//100 165//100 163//100
f 189//101 163//101 161//101
f 188//102 161//102 159//102
f 187//103 159//103 157//103
f 186//104 157//104 155//104
f 185//105 155//105 153//105
f 154//72 156//72 186//72
f 156//73 158//73 187//73
f 158//106 160//106 188//106
f 160//75 162//75 189//75
f 162//76 164//76 190//76
f 164//77 166//77 191//77
f 166//107 168//107 192//107
f 168//79 170//79 193//79
f 170//80 172//80 194//80
f 172//81 174//81 195//81
f 174//108 176//108 196//108
f 176//83 178//83 197//83
f 178//84 180//84 198//84
f 180//85 182//85 199//85
f 158//86 156//86 154//86
f 154//86 184//86 182//86
f 182//86 180//86 178//86
f 178//86 176//86 174//86
f 174//86 172//86 170//86
f 170//86 168//86 166//86
f 166//86 164//86 162//86
f 162//86 160//86 166//86
f 160//86 158//86 166//86
f 158//86 154//86 182//86
f 182//86 178//86 174//86
f 174//86 170//86 158//86
f 170//86 166//86 158//86
f 182//87 184//87 200//87
f 184//88 154//88 185//88
f 183//109 153//109 155//109
f 155//89 157//89 159//89
f 159//89 161//89 167//89
f 161//89 163//89 167//89
f 163//110 165//110 167//110
f 167//109 169//109 171//109
f 171//89 173//89 175//89
f 175//89 177//89 179//89
f 179//110 181//110 183//110
f 183//89 155//89 167//89
f 155//89 159//89 167//89
f 167//89 171//89 175//89
f 175//89 179//89 183//89
f 183//111 200//111 185//111
f 181//91 199//91 200//91
f 179//112 198//112 199//112
f 177//113 197//113 198//113
f 175//114 196//114 197//114
f 173//115 195//115 196//115
f 171//116 194//116 195//116
f 169//97 193//97 194//97
f 192//117 193//117 169//117
f 191//99 192//99 167//99
f 190//100 191//100 165//100
f 189//101 190//101 163//101
f 188//102 189//102 161//102
f 187//103 188//103 159//103
f 186//104 187//104 157//104
f 185//105 186//105 155//105
v 1.096277 0.759403 -2.917131
v 1.189661 0.760310 -2.949395
v 1.096428 0.749923 -2.915458
v 1.190001 0.739063 -2.945645
v 1.096846 0.741808 -2.910295
v 1.190937 0.720875 -2.934073
v 1.097466 0.736292 -2.902427
v 1.192326 0.708514 -2.916441
v 1.098193 0.734217 -2.893054
v 1.193957 0.703862 -2.895434
v 1.098918 0.735897 -2.883602
v 1.195581 0.707628 -2.874249
v 1.099530 0.741077 -2.875510
v 1.196951 0.719237 -2.856112
v 1.099935 0.748969 -2.870009
v 1.197859 0.736924 -2.843785
v 1.100072 0.758370 -2.867938
v 1.198166 0.757994 -2.839143
v 1.099920 0.767850 -2.869611
v 1.197826 0.779241 -2.842893
v 1.099502 0.775966 -2.874774
v 1.196890 0.797429 -2.854465
v 1.098882 0.781481 -2.882642
v 1.195501 0.809790 -2.872097
v 1.098155 0.783556 -2.892015
v 1.193870 0.814442 -2.893104
v 1.097430 0.781876 -2.901467
v 1.192246 0.810676 -2.914289
v 1.096819 0.776696 -2.909560
v 1.190876 0.799067 -2.932425
v 1.096414 0.768805 -2.915060
v 1.189968 0.781380 -2.944753
v 1.149780 0.760214 -2.946321
v 1.150120 0.738967 -2.942570
v 1.151056 0.720779 -2.930998
v 1.152445 0.708418 -2.913366
v 1.154076 0.703766 -2.892359
v 1.155700 0.707532 -2.871174
v 1.157070 0.719141 -2.853038
v 1.157978 0.736828 -2.840710
v 1.158285 0.757898 -2.836068
v 1.157945 0.779145 -2.839818
v 1.157009 0.797333 -2.851390
v 1.155620 0.809694 -2.869022
v 1.153989 0.814346 -2.890029
v 1.152365 0.810580 -2.911214
v 1.150995 0.798971 -2.929351
v 1.150087 0.781284 -2.941679
vn -0.0753 -0.1745 -0.9818
vn -0.0635 -0.5380 -0.8405
vn -0.0421 -0.8197 -0.5713
vn -0.0142 -0.9765 -0.2151
vn 0.0158 -0.9847 0.1738
vn 0.0434 -0.8429 0.5363
vn 0.0644 -0.5729 0.8171
vn 0.0756 -0.2156 0.9736
vn 0.0753 0.1745 0.9818
vn 0.0635 0.5380 0.8405
vn 0.0421 0.8197 0.5713
vn 0.0142 0.9765 0.2151
vn -0.0158 0.9847 -0.1738
vn -0.0434 0.8429 -0.5363
vn 0.9970 0.0024 -0.0769
vn -0.0644 0.5729 -0.8171
vn -0.0756 0.2156 -0.9736
vn -0.9970 -0.0024 0.0769
vn -0.4719 0.1963 -0.8595
vn -0.4735 0.5199 -0.7110
vn -0.4751 0.7570 -0.4486
vn -0.4763 0.8713 -0.1183
vn -0.4766 0.8498 0.2252
vn -0.4762 0.7020 0.5296
vn -0.4752 0.4548 0.7532
vn -0.4742 0.1457 0.8683
vn -0.4732 -0.1830 0.8617
vn -0.4726 -0.4875 0.7342
vn -0.4721 -0.7258 0.5003
vn -0.4717 -0.8612 0.1893
vn -0.4712 -0.8682 -0.1557
vn -0.4707 -0.7395 -0.4813
vn -0.4705 -0.4908 -0.7333
vn -0.4708 -0.1607 -0.8675
vn 0.0421 0.8196 0.5713
vn -0.9970 -0.0024 0.0768
vn -0.9970 -0.0025 0.0769
vn -0.4719 0.1962 -0.8595
vn -0.4751 0.7570 -0.4487
vn -0.4763 0.8713 -0.1184
vn -0.4753 0.4548 0.7532
vn -0.4732 -0.1829 0.8617
vn -0.4717 -0.8612 0.1892
vn -0.4711 -0.8682 -0.1557
s off
f 202//118 234//118 233//118
f 204//119 235//119 234//119
f 206//120 236//120 235//120
f 208//121 237//121 236//121
f 210//122 238//122 237//122
f 212//123 239//123 238//123
f 214//124 240//124 239//124
f 216//125 241//125 240//125
f 218//126 242//126 241//126
f 220//127 243//127 242//127
f 222//128 244//128 243//128
f 224//129 245//129 244//129
f 226//130 246//130 245//130
f 228//131 247//131 246//131
f 206//132 230//132 222//132
f 230//133 248//133 247//133
f 232//134 233//134 248//134
f 215//135 223//135 231//135
f 231//136 233//136 201//136
f 229//137 248//137 231//137
f 227//138 247//138 229//138
f 225//139 246//139 227//139
f 223//140 245//140 225//140
f 221//141 244//141 223//141
f 219//142 243//142 221//142
f 217//143 242//143 219//143
f 240//144 217//144 215//144
f 239//145 215//145 213//145
f 238//146 213//146 211//146
f 237//147 211//147 209//147
f 236//148 209//148 207//148
f 235//149 207//149 205//149
f 234//150 205//150 203//150
f 233//151 203//151 201//151
f 202//118 204//118 234//118
f 204//119 206//119 235//119
f 206//120 208//120 236//120
f 208//121 210//121 237//121
f 210//122 212//122 238//122
f 212//123 214//123 239//123
f 214//124 216//124 240//124
f 216//125 218//125 241//125
f 218//126 220//126 242//126
f 220//127 222//127 243//127
f 222//152 224//152 244//152
f 224//129 226//129 245//129
f 226//130 228//130 246//130
f 228//131 230//131 247//131
f 206//132 204//132 202//132
f 202//132 232//132 230//132
f 230//132 228//132 226//132
f 226//132 224//132 222//132
f 222//132 220//132 218//132
f 218//132 216//132 214//132
f 214//132 212//132 210//132
f 210//132 208//132 214//132
f 208//132 206//132 214//132
f 206//132 202//132 230//132
f 230//132 226//132 222//132
f 222//132 218//132 206//132
f 218//132 214//132 206//132
f 230//133 232//133 248//133
f 232//134 202//134 233//134
f 231//153 201//153 203//153
f 203//135 205//135 207//135
f 207//135 209//135 215//135
f 209//135 211//135 215//135
f 211//154 213//154 215//154
f 215//153 217//153 219//153
f 219//135 221//135 223//135
f 223//135 225//135 227//135
f 227//154 229//154 231//154
f 231//135 203//135 215//135
f 203//135 207//135 215//135
f 215//135 219//135 223//135
f 223//135 227//135 231//135
f 231//155 248//155 233//155
f 229//137 247//137 248//137
f 227//156 246//156 247//156
f 225//157 245//157 246//157
f 223//140 244//140 245//140
f 221//141 243//141 244//141
f 219//158 242//158 243//158
f 217//143 241//143 242//143
f 240//159 241//159 217//159
f 239//145 240//145 215//145
f 238//146 239//146 213//146
f 237//160 238//160 211//160
f 236//161 237//161 209//161
f 235//149 236//149 207//149
f 234//150 235//150 205//150
f 233//151 234//151 203//151
