# Blender v2.79 (sub 0) OBJ File: 'janela.blend'
# www.blender.org
v 2.000000 0.000000 -60.000000
v 2.000000 0.000000 -20.000000
v -2.000000 0.000000 -20.000004
v -1.999999 0.000000 -60.000008
v 2.000001 40.000000 -59.999989
v 1.999999 40.000000 -19.999989
v -2.000001 40.000000 -20.000008
v -2.000000 40.000000 -60.000000
vn 0.0000 -1.0000 0.0000
vn 0.0000 1.0000 0.0000
vn 1.0000 -0.0000 0.0000
vn -0.0000 -0.0000 1.0000
vn -1.0000 -0.0000 -0.0000
vn 0.0000 0.0000 -1.0000
s off
f 2//1 4//1 1//1
f 8//2 6//2 5//2
f 5//3 2//3 1//3
f 6//4 3//4 2//4
f 3//5 8//5 4//5
f 1//6 8//6 5//6
f 2//1 3//1 4//1
f 8//2 7//2 6//2
f 5//3 6//3 2//3
f 6//4 7//4 3//4
f 3//5 7//5 8//5
f 1//6 4//6 8//6
v 2.200000 19.000000 -60.000000
v 2.200000 19.000000 -20.000000
v -2.200000 19.000000 -20.000004
v -2.199999 19.000000 -60.000008
v 2.200001 21.000000 -59.999989
v 2.199999 21.000000 -19.999989
v -2.200001 21.000000 -20.000008
v -2.200000 21.000000 -60.000000
vn 0.0000 -1.0000 0.0000
vn 0.0000 1.0000 -0.0000
vn 1.0000 -0.0000 0.0000
vn -0.0000 -0.0000 1.0000
vn -1.0000 -0.0000 -0.0000
vn 0.0000 0.0000 -1.0000
s off
f 10//7 12//7 9//7
f 16//8 14//8 13//8
f 13//9 10//9 9//9
f 14//10 11//10 10//10
f 11//11 16//11 12//11
f 9//12 16//12 13//12
f 10//7 11//7 12//7
f 16//8 15//8 14//8
f 13//9 14//9 10//9
f 14//10 15//10 11//10
f 11//11 15//11 16//11
f 9//12 12//12 16//12
v 2.400000 0.000000 -41.000000
v 2.400000 0.000000 -39.000000
v -2.400000 0.000000 -39.000000
v -2.399999 0.000000 -41.000000
v 2.400001 40.000000 -41.000000
v 2.399998 40.000000 -39.000000
v -2.400001 40.000000 -39.000000
v -2.400000 40.000000 -41.000000
vn 0.0000 -1.0000 0.0000
vn 0.0000 1.0000 0.0000
vn 1.0000 -0.0000 0.0000
vn 0.0000 0.0000 1.0000
vn -1.0000 -0.0000 -0.0000
vn 0.0000 0.0000 -1.0000
s off
f 18//13 20//13 17//13
f 24//14 22//14 21//14
f 21//15 18//15 17//15
f 22//16 19//16 18//16
f 19//17 24//17 20//17
f 17//18 24//18 21//18
f 18//13 19//13 20//13
f 24//14 23//14 22//14
f 21//15 22//15 18//15
f 22//16 23//16 19//16
f 19//17 23//17 24//17
f 17//18 20//18 24//18
v 2.200000 40.000000 -61.000000
v 2.200000 40.000000 -19.000000
v -2.200000 40.000000 -19.000004
v -2.199999 40.000000 -61.000008
v 2.200001 42.000000 -60.999989
v 2.199999 42.000000 -18.999987
v -2.200001 42.000000 -19.000008
v -2.200000 42.000000 -61.000000
vn 0.0000 -1.0000 0.0000
vn 0.0000 1.0000 -0.0000
vn 1.0000 -0.0000 0.0000
vn -0.0000 -0.0000 1.0000
vn -1.0000 -0.0000 -0.0000
vn 0.0000 0.0000 -1.0000
s off
f 26//19 28//19 25//19
f 32//20 30//20 29//20
f 29//21 26//21 25//21
f 30//22 27//22 26//22
f 27//23 32//23 28//23
f 25//24 32//24 29//24
f 26//19 27//19 28//19
f 32//20 31//20 30//20
f 29//21 30//21 26//21
f 30//22 31//22 27//22
f 27//23 31//23 32//23
f 25//24 28//24 32//24
v 2.200000 -2.000000 -61.000000
v 2.200000 -2.000000 -19.000000
v -2.200000 -2.000000 -19.000004
v -2.199999 -2.000000 -61.000008
v 2.200001 0.000000 -60.999989
v 2.199999 0.000000 -18.999987
v -2.200001 0.000000 -19.000008
v -2.200000 0.000000 -61.000000
vn 0.0000 -1.0000 0.0000
vn 0.0000 1.0000 0.0000
vn 1.0000 -0.0000 0.0000
vn -0.0000 -0.0000 1.0000
vn -1.0000 -0.0000 -0.0000
vn 0.0000 0.0000 -1.0000
s off
f 34//25 36//25 33//25
f 40//26 38//26 37//26
f 37//27 34//27 33//27
f 38//28 35//28 34//28
f 35//29 40//29 36//29
f 33//30 40//30 37//30
f 34//25 35//25 36//25
f 40//26 39//26 38//26
f 37//27 38//27 34//27
f 38//28 39//28 35//28
f 35//29 39//29 40//29
f 33//30 36//30 40//30
v 2.400000 0.000000 -61.000000
v 2.400000 0.000000 -59.000000
v -2.400000 0.000000 -59.000000
v -2.399999 0.000000 -61.000000
v 2.400001 40.000000 -61.000000
v 2.399998 40.000000 -59.000000
v -2.400001 40.000000 -59.000000
v -2.400000 40.000000 -61.000000
vn 0.0000 -1.0000 0.0000
vn 0.0000 1.0000 0.0000
vn 1.0000 -0.0000 0.0000
vn 0.0000 0.0000 1.0000
vn -1.0000 -0.0000 -0.0000
vn 0.0000 0.0000 -1.0000
s off
f 42//31 44//31 41//31
f 48//32 46//32 45//32
f 45//33 42//33 41//33
f 46//34 43//34 42//34
f 43//35 48//35 44//35
f 41//36 48//36 45//36
f 42//31 43//31 44//31
f 48//32 47//32 46//32
f 45//33 46//33 42//33
f 46//34 47//34 43//34
f 43//35 47//35 48//35
f 41//36 44//36 48//36
v 2.200000 19.000000 -19.999998
v 2.200000 19.000000 20.000000
v -2.200000 19.000000 19.999996
v -2.199999 19.000000 -20.000008
v 2.200001 21.000000 -19.999989
v 2.199999 21.000000 20.000011
v -2.200001 21.000000 19.999992
v -2.200000 21.000000 -20.000000
vn 0.0000 -1.0000 0.0000
vn 0.0000 1.0000 -0.0000
vn 1.0000 -0.0000 0.0000
vn -0.0000 -0.0000 1.0000
vn -1.0000 -0.0000 -0.0000
vn 0.0000 0.0000 -1.0000
s off
f 50//37 52//37 49//37
f 56//38 54//38 53//38
f 53//39 50//39 49//39
f 54//40 51//40 50//40
f 51//41 56//41 52//41
f 49//42 56//42 53//42
f 50//37 51//37 52//37
f 56//38 55//38 54//38
f 53//39 54//39 50//39
f 54//40 55//40 51//40
f 51//41 55//41 56//41
f 49//42 52//42 56//42
v 2.400000 0.000000 -21.000000
v 2.400000 0.000000 -19.000000
v -2.400000 0.000000 -19.000000
v -2.399999 0.000000 -21.000000
v 2.400001 40.000000 -21.000000
v 2.399998 40.000000 -19.000000
v -2.400001 40.000000 -19.000000
v -2.400000 40.000000 -21.000000
vn 0.0000 -1.0000 0.0000
vn 0.0000 1.0000 0.0000
vn 1.0000 -0.0000 0.0000
vn 0.0000 0.0000 1.0000
vn -1.0000 -0.0000 -0.0000
vn 0.0000 0.0000 -1.0000
s off
f 58//43 60//43 57//43
f 64//44 62//44 61//44
f 61//45 58//45 57//45
f 62//46 59//46 58//46
f 59//47 64//47 60//47
f 57//48 64//48 61//48
f 58//43 59//43 60//43
f 64//44 63//44 62//44
f 61//45 62//45 58//45
f 62//46 63//46 59//46
f 59//47 63//47 64//47
f 57//48 60//48 64//48
v 2.200000 -2.000000 -20.999998
v 2.200000 -2.000000 21.000000
v -2.200000 -2.000000 20.999996
v -2.199999 -2.000000 -21.000008
v 2.200001 0.000000 -20.999989
v 2.199999 0.000000 21.000013
v -2.200001 0.000000 20.999992
v -2.200000 0.000000 -21.000000
vn 0.0000 -1.0000 0.0000
vn 0.0000 1.0000 0.0000
vn 1.0000 -0.0000 0.0000
vn -0.0000 -0.0000 1.0000
vn -1.0000 -0.0000 -0.0000
vn 0.0000 0.0000 -1.0000
s off
f 66//49 68//49 65//49
f 72//50 70//50 69//50
f 69//51 66//51 65//51
f 70//52 67//52 66//52
f 67//53 72//53 68//53
f 65//54 72//54 69//54
f 66//49 67//49 68//49
f 72//50 71//50 70//50
f 69//51 70//51 66//51
f 70//52 71//52 67//52
f 67//53 71//53 72//53
f 65//54 68//54 72//54
v 2.200000 40.000000 -20.999998
v 2.200000 40.000000 21.000000
v -2.200000 40.000000 20.999996
v -2.199999 40.000000 -21.000008
v 2.200001 42.000000 -20.999989
v 2.199999 42.000000 21.000013
v -2.200001 42.000000 20.999992
v -2.200000 42.000000 -21.000000
vn 0.0000 -1.0000 0.0000
vn 0.0000 1.0000 -0.0000
vn 1.0000 -0.0000 0.0000
vn -0.0000 -0.0000 1.0000
vn -1.0000 -0.0000 -0.0000
vn 0.0000 0.0000 -1.0000
s off
f 74//55 76//55 73//55
f 80//56 78//56 77//56
f 77//57 74//57 73//57
f 78//58 75//58 74//58
f 75//59 80//59 76//59
f 73//60 80//60 77//60
f 74//55 75//55 76//55
f 80//56 79//56 78//56
f 77//57 78//57 74//57
f 78//58 79//58 75//58
f 75//59 79//59 80//59
f 73//60 76//60 80//60
v 2.400000 0.000000 -1.000000
v 2.400000 0.000000 1.000000
v -2.400000 0.000000 1.000000
v -2.399999 0.000000 -1.000000
v 2.400001 40.000000 -0.999999
v 2.399998 40.000000 1.000001
v -2.400001 40.000000 1.000000
v -2.400000 40.000000 -1.000000
vn 0.0000 -1.0000 0.0000
vn 0.0000 1.0000 0.0000
vn 1.0000 -0.0000 0.0000
vn 0.0000 -0.0000 1.0000
vn -1.0000 -0.0000 -0.0000
vn 0.0000 0.0000 -1.0000
s off
f 82//61 84//61 81//61
f 88//62 86//62 85//62
f 85//63 82//63 81//63
f 86//64 83//64 82//64
f 83//65 88//65 84//65
f 81//66 88//66 85//66
f 82//61 83//61 84//61
f 88//62 87//62 86//62
f 85//63 86//63 82//63
f 86//64 87//64 83//64
f 83//65 87//65 88//65
f 81//66 84//66 88//66
v 2.400000 0.000000 19.000000
v 2.400000 0.000000 21.000000
v -2.400000 0.000000 21.000000
v -2.399999 0.000000 19.000000
v 2.400001 40.000000 19.000000
v 2.399998 40.000000 21.000000
v -2.400001 40.000000 21.000000
v -2.400000 40.000000 19.000000
vn 0.0000 -1.0000 0.0000
vn 0.0000 1.0000 0.0000
vn 1.0000 -0.0000 0.0000
vn 0.0000 0.0000 1.0000
vn -1.0000 -0.0000 -0.0000
vn 0.0000 0.0000 -1.0000
s off
f 90//67 92//67 89//67
f 96//68 94//68 93//68
f 93//69 90//69 89//69
f 94//70 91//70 90//70
f 91//71 96//71 92//71
f 89//72 96//72 93//72
f 90//67 91//67 92//67
f 96//68 95//68 94//68
f 93//69 94//69 90//69
f 94//70 95//70 91//70
f 91//71 95//71 96//71
f 89//72 92//72 96//72
v 2.000000 0.000000 -19.999998
v 2.000000 0.000000 20.000000
v -2.000000 0.000000 19.999996
v -1.999999 0.000000 -20.000008
v 2.000001 40.000000 -19.999989
v 1.999999 40.000000 20.000011
v -2.000001 40.000000 19.999992
v -2.000000 40.000000 -20.000000
vn 0.0000 -1.0000 0.0000
vn 0.0000 1.0000 0.0000
vn 1.0000 -0.0000 0.0000
vn -0.0000 -0.0000 1.0000
vn -1.0000 -0.0000 -0.0000
vn 0.0000 0.0000 -1.0000
s off
f 98//73 100//73 97//73
f 104//74 102//74 101//74
f 101//75 98//75 97//75
f 102//76 99//76 98//76
f 99//77 104//77 100//77
f 97//78 104//78 101//78
f 98//73 99//73 100//73
f 104//74 103//74 102//74
f 101//75 102//75 98//75
f 102//76 103//76 99//76
f 99//77 103//77 104//77
f 97//78 100//78 104//78
