# Blender v2.79 (sub 0) OBJ File: 'scenarioblend.blend'
# www.blender.org
v 2.006532 2.017175 0.988690
v 2.006532 2.126324 0.988690
v 1.650620 2.017175 0.447230
v 1.650620 2.126324 0.447230
v 2.429328 2.017175 0.710778
v 2.429328 2.126324 0.710778
v 2.073416 2.017175 0.169318
v 2.073416 2.126324 0.169318
v 2.006532 2.022495 0.988690
v 2.006532 2.121004 0.988690
v 1.650620 2.121004 0.447230
v 1.650620 2.022495 0.447230
v 2.073416 2.121004 0.169318
v 2.073416 2.022495 0.169318
v 2.429328 2.121004 0.710778
v 2.429328 2.022495 0.710778
v 2.006532 2.121004 0.988690
v 2.006532 2.126324 0.988690
v 1.650620 2.022495 0.447230
v 1.650620 2.017175 0.447230
v 2.073416 2.017175 0.169318
v 1.650620 2.126324 0.447230
v 2.073416 2.126324 0.169318
v 2.073416 2.022495 0.169318
v 2.429328 2.017175 0.710778
v 2.429328 2.126324 0.710778
v 2.429328 2.022495 0.710778
v 2.006532 2.017175 0.988690
v 2.006532 2.022495 0.988690
v 1.650620 2.121004 0.447230
v 2.073416 2.121004 0.169318
v 2.429328 2.121004 0.710778
v 2.006532 2.121004 0.988690
v 2.006532 2.126324 0.988690
v 1.650620 2.022495 0.447230
v 1.650620 2.017175 0.447230
v 2.073416 2.017175 0.169318
v 1.650620 2.126324 0.447230
v 2.073416 2.126324 0.169318
v 2.073416 2.022495 0.169318
v 2.429328 2.017175 0.710778
v 2.429328 2.126324 0.710778
v 2.429328 2.022495 0.710778
v 2.006532 2.017175 0.988690
v 2.006532 2.022495 0.988690
v 1.650620 2.121004 0.447230
v 2.073416 2.121004 0.169318
v 2.429328 2.121004 0.710778
v 2.026962 2.120224 1.019771
v 2.026962 2.125460 1.019771
v 1.630189 2.023275 0.416148
v 1.630189 2.018039 0.416148
v 2.077238 2.018039 0.122294
v 1.630189 2.125460 0.416148
v 2.077238 2.125460 0.122294
v 2.077238 2.023275 0.122294
v 2.474011 2.018039 0.725917
v 2.474011 2.125460 0.725917
v 2.474011 2.023275 0.725917
v 2.026962 2.018039 1.019771
v 2.026962 2.023275 1.019771
v 1.630189 2.120224 0.416148
v 2.077238 2.120224 0.122294
v 2.474011 2.120224 0.725917
v 1.657184 2.017175 0.442915
v 1.657184 2.126324 0.442915
v 2.013096 2.017175 0.984375
v 2.013096 2.126324 0.984375
v 2.013096 2.022495 0.984375
v 2.013096 2.121004 0.984375
v 1.657184 2.022495 0.442915
v 1.657184 2.121004 0.442915
v 1.657184 2.017175 0.442915
v 1.657184 2.126324 0.442915
v 2.013096 2.017175 0.984375
v 2.013096 2.126324 0.984375
v 2.013096 2.022495 0.984375
v 2.013096 2.121004 0.984375
v 1.657184 2.022495 0.442915
v 1.657184 2.121004 0.442915
v 1.657184 2.017175 0.442915
v 1.657184 2.126324 0.442915
v 2.013096 2.017175 0.984375
v 2.013096 2.126324 0.984375
v 2.013096 2.022495 0.984375
v 2.013096 2.121004 0.984375
v 1.657184 2.022495 0.442915
v 1.657184 2.121004 0.442915
v 1.637130 2.018039 0.411586
v 1.637130 2.125460 0.411586
v 2.033903 2.018039 1.015209
v 2.033903 2.125460 1.015209
v 2.033903 2.023275 1.015209
v 2.033903 2.120224 1.015209
v 1.637130 2.023275 0.411586
v 1.637130 2.120224 0.411586
v 1.650620 2.121004 0.447230
v 1.630189 2.120224 0.416148
v 1.650620 2.022495 0.447230
v 1.630189 2.023275 0.416148
v 1.657184 2.022495 0.442915
v 1.657184 2.121004 0.442915
v 1.637130 2.023275 0.411586
v 1.637130 2.120224 0.411586
v 1.629986 2.121004 0.415840
v 1.629986 2.022495 0.415840
v 1.636551 2.022495 0.411525
v 1.636551 2.121004 0.411525
v 2.027049 2.022495 1.019903
v 2.027049 2.121004 1.019903
v 2.033613 2.022495 1.015588
v 2.033613 2.121004 1.015588
vn -0.8356 0.0000 0.5493
vn 0.0000 0.0000 1.0000
vn 0.0000 -1.0000 0.0000
vn 0.0000 1.0000 0.0000
vn 0.8356 0.0000 -0.5493
vn -0.5493 0.0000 -0.8356
vn -0.0115 -0.9998 -0.0175
vn -0.0115 0.9998 -0.0175
vn 0.0249 0.9996 -0.0164
vn 0.0249 -0.9996 -0.0164
vn 0.8357 0.0000 -0.5493
vn 0.5493 0.0000 0.8356
vn 0.0128 -0.9997 0.0194
vn -0.0225 0.9996 0.0148
vn 0.0128 0.9997 0.0194
vn -0.0128 -0.9997 -0.0194
vn -0.0225 -0.9996 0.0148
vn -0.0128 0.9997 -0.0194
vn 0.0115 0.9998 0.0175
vn -0.5493 0.0000 -0.8357
vn 0.0115 -0.9998 0.0175
s off
f 2//1 11//1 10//1
f 14//2 27//2 24//2
f 5//2 21//2 25//2
f 11//2 22//2 30//2
f 7//3 67//3 65//3
f 4//4 68//4 66//4
f 70//2 32//2 78//2
f 10//4 112//4 70//4
f 69//2 29//2 77//2
f 13//5 16//5 14//5
f 66//2 23//2 74//2
f 72//6 14//6 71//6
f 9//1 3//1 1//1
f 10//1 12//1 9//1
f 24//2 43//2 40//2
f 20//2 35//2 36//2
f 75//2 41//2 83//2
f 78//2 48//2 86//2
f 18//2 33//2 34//2
f 77//2 45//2 85//2
f 8//2 26//2 23//2
f 15//2 31//2 32//2
f 2//2 17//2 18//2
f 71//2 24//2 79//2
f 67//2 25//2 75//2
f 72//2 30//2 80//2
f 3//2 19//2 20//2
f 68//2 18//2 76//2
f 65//2 20//2 73//2
f 9//2 28//2 29//2
f 48//7 94//7 86//7
f 33//1 50//1 34//1
f 85//8 61//8 93//8
f 42//9 55//9 39//9
f 37//10 57//10 41//10
f 96//2 102//2 104//2
f 76//2 34//2 84//2
f 73//2 36//2 81//2
f 32//2 47//2 48//2
f 29//2 44//2 45//2
f 74//2 39//2 82//2
f 79//2 40//2 87//2
f 30//2 38//2 46//2
f 80//2 46//2 88//2
f 25//2 37//2 41//2
f 23//2 42//2 39//2
f 90//6 63//6 96//6
f 55//11 64//11 63//11
f 92//12 49//12 94//12
f 93//12 60//12 91//12
f 56//5 57//5 53//5
f 95//6 53//6 89//6
f 41//13 91//13 83//13
f 35//1 52//1 36//1
f 43//14 56//14 40//14
f 84//15 50//15 92//15
f 81//16 52//16 89//16
f 47//17 64//17 48//17
f 45//1 60//1 61//1
f 39//18 90//18 82//18
f 40//19 95//19 87//19
f 46//1 54//1 62//1
f 46//2 98//2 97//2
f 82//18 54//18 38//18
f 37//16 89//16 53//16
f 42//15 92//15 58//15
f 83//13 60//13 44//13
f 51//20 89//20 52//20
f 59//12 91//12 57//12
f 58//12 94//12 64//12
f 54//6 96//6 62//6
f 31//2 88//2 47//2
f 19//2 87//2 35//2
f 22//2 82//2 38//2
f 21//2 81//2 37//2
f 26//2 84//2 42//2
f 47//21 96//21 63//21
f 43//8 93//8 59//8
f 86//7 49//7 33//7
f 7//2 73//2 21//2
f 6//2 76//2 26//2
f 13//2 80//2 31//2
f 1//2 75//2 28//2
f 12//2 79//2 19//2
f 27//2 85//2 43//2
f 17//2 86//2 33//2
f 28//2 83//2 44//2
f 71//5 108//5 72//5
f 4//2 74//2 22//2
f 16//2 77//2 27//2
f 15//12 69//12 16//12
f 10//2 78//2 17//2
f 66//4 6//4 8//4
f 65//3 1//3 3//3
f 102//21 98//21 104//21
f 101//19 100//19 99//19
f 35//2 101//2 99//2
f 62//2 104//2 98//2
f 51//2 99//2 100//2
f 88//2 97//2 102//2
f 87//2 103//2 101//2
f 95//2 100//2 103//2
f 105//6 107//6 106//6
f 72//4 105//4 11//4
f 11//1 106//1 12//1
f 12//3 107//3 71//3
f 112//12 109//12 111//12
f 70//5 111//5 69//5
f 9//1 110//1 10//1
f 69//3 109//3 9//3
f 2//1 4//1 11//1
f 14//2 16//2 27//2
f 5//2 7//2 21//2
f 11//2 4//2 22//2
f 7//3 5//3 67//3
f 4//4 2//4 68//4
f 70//2 15//2 32//2
f 10//4 110//4 112//4
f 69//2 9//2 29//2
f 13//5 15//5 16//5
f 66//2 8//2 23//2
f 72//6 13//6 14//6
f 9//1 12//1 3//1
f 10//1 11//1 12//1
f 24//2 27//2 43//2
f 20//2 19//2 35//2
f 75//2 25//2 41//2
f 78//2 32//2 48//2
f 18//2 17//2 33//2
f 77//2 29//2 45//2
f 8//2 6//2 26//2
f 15//2 13//2 31//2
f 2//2 10//2 17//2
f 71//2 14//2 24//2
f 67//2 5//2 25//2
f 72//2 11//2 30//2
f 3//2 12//2 19//2
f 68//2 2//2 18//2
f 65//2 3//2 20//2
f 9//2 1//2 28//2
f 48//7 64//7 94//7
f 33//1 49//1 50//1
f 85//8 45//8 61//8
f 42//9 58//9 55//9
f 37//10 53//10 57//10
f 96//2 88//2 102//2
f 76//2 18//2 34//2
f 73//2 20//2 36//2
f 32//2 31//2 47//2
f 29//2 28//2 44//2
f 74//2 23//2 39//2
f 79//2 24//2 40//2
f 30//2 22//2 38//2
f 80//2 30//2 46//2
f 25//2 21//2 37//2
f 23//2 26//2 42//2
f 90//6 55//6 63//6
f 55//5 58//5 64//5
f 92//12 50//12 49//12
f 93//12 61//12 60//12
f 56//11 59//11 57//11
f 95//6 56//6 53//6
f 41//13 57//13 91//13
f 35//1 51//1 52//1
f 43//14 59//14 56//14
f 84//15 34//15 50//15
f 81//16 36//16 52//16
f 47//17 63//17 64//17
f 45//1 44//1 60//1
f 39//18 55//18 90//18
f 40//19 56//19 95//19
f 46//1 38//1 54//1
f 46//2 62//2 98//2
f 82//18 90//18 54//18
f 37//16 81//16 89//16
f 42//15 84//15 92//15
f 83//13 91//13 60//13
f 51//6 95//6 89//6
f 59//12 93//12 91//12
f 58//12 92//12 94//12
f 54//6 90//6 96//6
f 31//2 80//2 88//2
f 19//2 79//2 87//2
f 22//2 74//2 82//2
f 21//2 73//2 81//2
f 26//2 76//2 84//2
f 47//21 88//21 96//21
f 43//8 85//8 93//8
f 86//7 94//7 49//7
f 7//2 65//2 73//2
f 6//2 68//2 76//2
f 13//2 72//2 80//2
f 1//2 67//2 75//2
f 12//2 71//2 79//2
f 27//2 77//2 85//2
f 17//2 78//2 86//2
f 28//2 75//2 83//2
f 71//5 107//5 108//5
f 4//2 66//2 74//2
f 16//2 69//2 77//2
f 15//12 70//12 69//12
f 10//2 70//2 78//2
f 66//4 68//4 6//4
f 65//3 67//3 1//3
f 102//21 97//21 98//21
f 101//19 103//19 100//19
f 35//2 87//2 101//2
f 62//2 96//2 104//2
f 51//2 35//2 99//2
f 88//2 46//2 97//2
f 87//2 95//2 103//2
f 95//2 51//2 100//2
f 105//6 108//6 107//6
f 72//4 108//4 105//4
f 11//1 105//1 106//1
f 12//3 106//3 107//3
f 112//12 110//12 109//12
f 70//5 112//5 111//5
f 9//1 109//1 110//1
f 69//3 111//3 109//3
