# Blender v2.79 (sub 0) OBJ File: 'scenarioblend.blend'
# www.blender.org
v -1.070945 0.057241 7.430083
v -1.155691 6.544124 7.541080
v -1.070945 0.057241 -5.198477
v -1.155691 6.544124 -5.309473
v 8.570963 0.057241 7.430083
v 8.655708 6.544124 7.541080
v 8.570963 0.057241 -5.198477
v 8.655708 6.544124 -5.309473
v -1.155691 0.057241 -5.309473
v -1.155691 0.057241 7.541080
v 8.655708 0.057241 -5.309473
v 8.655708 0.057241 7.541080
v -1.070945 6.458489 -5.198477
v -1.070945 6.458489 7.430083
v 8.570963 6.458489 -5.198477
v 8.570963 6.458489 7.430083
vn -1.0000 0.0000 0.0000
vn 0.0000 0.0000 -1.0000
vn 1.0000 0.0000 0.0000
vn 0.0000 0.0000 1.0000
vn 0.0000 1.0000 0.0000
vn 0.0000 -1.0000 0.0000
s off
f 2//1 9//1 10//1
f 4//2 11//2 9//2
f 8//3 12//3 11//3
f 6//4 10//4 12//4
f 1//2 16//2 5//2
f 4//5 6//5 8//5
f 1//6 9//6 3//6
f 3//6 11//6 7//6
f 7//6 12//6 5//6
f 5//6 10//6 1//6
f 15//6 14//6 13//6
f 7//4 13//4 3//4
f 5//1 15//1 7//1
f 3//3 14//3 1//3
f 2//1 4//1 9//1
f 4//2 8//2 11//2
f 8//3 6//3 12//3
f 6//4 2//4 10//4
f 1//2 14//2 16//2
f 4//5 2//5 6//5
f 1//6 10//6 9//6
f 3//6 9//6 11//6
f 7//6 11//6 12//6
f 5//6 12//6 10//6
f 15//6 16//6 14//6
f 7//4 15//4 13//4
f 5//1 16//1 15//1
f 3//3 13//3 14//3
