# Blender v2.79 (sub 0) OBJ File: 'porta.blend'
# www.blender.org
v 0.090000 1.950000 -0.600000
v 0.090000 2.350000 -0.600000
v 0.090000 1.950000 -0.800000
v 0.090000 2.350000 -0.800000
v 0.110000 1.950000 -0.600000
v 0.110000 2.350000 -0.600000
v 0.110000 1.950000 -0.800000
v 0.110000 2.350000 -0.800000
vn -1.0000 0.0000 0.0000
vn 0.0000 0.0000 -1.0000
vn 1.0000 0.0000 0.0000
vn 0.0000 0.0000 1.0000
vn 0.0000 -1.0000 0.0000
vn 0.0000 1.0000 0.0000
s off
f 2//1 3//1 1//1
f 4//2 7//2 3//2
f 8//3 5//3 7//3
f 6//4 1//4 5//4
f 7//5 1//5 3//5
f 4//6 6//6 8//6
f 2//1 4//1 3//1
f 4//2 8//2 7//2
f 8//3 6//3 5//3
f 6//4 2//4 1//4
f 7//5 5//5 1//5
f 4//6 2//6 6//6
v 0.120000 3.960000 -1.060000
v 0.120000 3.960000 1.060000
v -0.120000 3.960000 1.060000
v -0.120000 3.960000 -1.060000
v 0.120000 4.060000 -1.059999
v 0.120000 4.060000 1.060001
v -0.120000 4.060000 1.060000
v -0.120000 4.060000 -1.060000
vn 0.0000 -1.0000 0.0000
vn 0.0000 1.0000 -0.0000
vn 1.0000 -0.0000 0.0000
vn 0.0000 -0.0000 1.0000
vn -1.0000 -0.0000 -0.0000
vn 0.0000 0.0000 -1.0000
s off
f 10//7 12//7 9//7
f 16//8 14//8 13//8
f 13//9 10//9 9//9
f 14//10 11//10 10//10
f 11//11 16//11 12//11
f 9//12 16//12 13//12
f 10//7 11//7 12//7
f 16//8 15//8 14//8
f 13//9 14//9 10//9
f 14//10 15//10 11//10
f 11//11 15//11 16//11
f 9//12 12//12 16//12
v 0.120000 0.002359 -1.060000
v 0.120000 0.002359 -0.960000
v -0.120000 0.002359 -0.960000
v -0.120000 0.002359 -1.060000
v 0.120000 4.002359 -1.060000
v 0.120000 4.002359 -0.960000
v -0.120000 4.002359 -0.960000
v -0.120000 4.002359 -1.060000
vn 0.0000 -1.0000 0.0000
vn 0.0000 1.0000 -0.0000
vn 1.0000 -0.0000 0.0000
vn 0.0000 0.0000 1.0000
vn -1.0000 -0.0000 -0.0000
vn 0.0000 0.0000 -1.0000
s off
f 18//13 20//13 17//13
f 24//14 22//14 21//14
f 21//15 18//15 17//15
f 22//16 19//16 18//16
f 19//17 24//17 20//17
f 17//18 24//18 21//18
f 18//13 19//13 20//13
f 24//14 23//14 22//14
f 21//15 22//15 18//15
f 22//16 23//16 19//16
f 19//17 23//17 24//17
f 17//18 20//18 24//18
v 0.120000 0.002359 0.960000
v 0.120000 0.002359 1.060000
v -0.120000 0.002359 1.060000
v -0.120000 0.002359 0.960000
v 0.120000 4.002359 0.960000
v 0.120000 4.002359 1.060000
v -0.120000 4.002359 1.060000
v -0.120000 4.002359 0.960000
vn 0.0000 -1.0000 0.0000
vn 0.0000 1.0000 -0.0000
vn 1.0000 -0.0000 0.0000
vn 0.0000 -0.0000 1.0000
vn -1.0000 -0.0000 -0.0000
vn 0.0000 0.0000 -1.0000
s off
f 26//19 28//19 25//19
f 32//20 30//20 29//20
f 29//21 26//21 25//21
f 30//22 27//22 26//22
f 27//23 32//23 28//23
f 25//24 32//24 29//24
f 26//19 27//19 28//19
f 32//20 31//20 30//20
f 29//21 30//21 26//21
f 30//22 31//22 27//22
f 27//23 31//23 32//23
f 25//24 28//24 32//24
v 0.050000 2.200000 -0.750000
v 0.150000 2.200000 -0.750000
v 0.050000 2.190246 -0.749039
v 0.150000 2.190246 -0.749039
v 0.050000 2.180866 -0.746194
v 0.150000 2.180866 -0.746194
v 0.050000 2.172221 -0.741573
v 0.150000 2.172221 -0.741573
v 0.050000 2.164645 -0.735355
v 0.150000 2.164645 -0.735355
v 0.050000 2.158427 -0.727778
v 0.150000 2.158427 -0.727778
v 0.050000 2.153806 -0.719134
v 0.150000 2.153806 -0.719134
v 0.050000 2.150961 -0.709755
v 0.150000 2.150961 -0.709755
v 0.050000 2.150000 -0.700000
v 0.150000 2.150000 -0.700000
v 0.050000 2.150961 -0.690245
v 0.150000 2.150961 -0.690245
v 0.050000 2.153806 -0.680866
v 0.150000 2.153806 -0.680866
v 0.050000 2.158427 -0.672221
v 0.150000 2.158427 -0.672221
v 0.050000 2.164645 -0.664645
v 0.150000 2.164645 -0.664645
v 0.050000 2.172221 -0.658427
v 0.150000 2.172221 -0.658427
v 0.050000 2.180866 -0.653806
v 0.150000 2.180866 -0.653806
v 0.050000 2.190246 -0.650961
v 0.150000 2.190246 -0.650961
v 0.050000 2.200000 -0.650000
v 0.150000 2.200000 -0.650000
v 0.050000 2.209754 -0.650961
v 0.150000 2.209754 -0.650961
v 0.050000 2.219134 -0.653806
v 0.150000 2.219134 -0.653806
v 0.050000 2.227779 -0.658427
v 0.150000 2.227779 -0.658427
v 0.050000 2.235355 -0.664645
v 0.150000 2.235355 -0.664645
v 0.050000 2.241574 -0.672221
v 0.150000 2.241574 -0.672221
v 0.050000 2.246194 -0.680866
v 0.150000 2.246194 -0.680866
v 0.050000 2.249039 -0.690246
v 0.150000 2.249039 -0.690246
v 0.050000 2.250000 -0.700000
v 0.150000 2.250000 -0.700000
v 0.050000 2.249039 -0.709755
v 0.150000 2.249039 -0.709755
v 0.050000 2.246194 -0.719134
v 0.150000 2.246194 -0.719134
v 0.050000 2.241574 -0.727779
v 0.150000 2.241574 -0.727779
v 0.050000 2.235355 -0.735355
v 0.150000 2.235355 -0.735355
v 0.050000 2.227778 -0.741574
v 0.150000 2.227778 -0.741574
v 0.050000 2.219134 -0.746194
v 0.150000 2.219134 -0.746194
v 0.050000 2.209754 -0.749039
v 0.150000 2.209754 -0.749039
vn 0.0000 -0.0980 -0.9952
vn 0.0000 -0.2903 -0.9569
vn 0.0000 -0.4714 -0.8819
vn 0.0000 -0.6344 -0.7730
vn 0.0000 -0.7730 -0.6344
vn 0.0000 -0.8819 -0.4714
vn 0.0000 -0.9569 -0.2903
vn 0.0000 -0.9952 -0.0980
vn 0.0000 -0.9952 0.0980
vn 0.0000 -0.9569 0.2903
vn 0.0000 -0.8819 0.4714
vn 0.0000 -0.7730 0.6344
vn 0.0000 -0.6344 0.7730
vn 0.0000 -0.4714 0.8819
vn -0.0000 -0.2903 0.9569
vn 0.0000 -0.0980 0.9952
vn 0.0000 0.0980 0.9952
vn 0.0000 0.2903 0.9569
vn 0.0000 0.4714 0.8819
vn 0.0000 0.6344 0.7730
vn 0.0000 0.7730 0.6344
vn 0.0000 0.8819 0.4714
vn 0.0000 0.9569 0.2903
vn 0.0000 0.9952 0.0980
vn 0.0000 0.9952 -0.0980
vn 0.0000 0.9569 -0.2903
vn 0.0000 0.8819 -0.4714
vn 0.0000 0.7730 -0.6344
vn 0.0000 0.6344 -0.7730
vn 0.0000 0.4714 -0.8819
vn 1.0000 0.0000 0.0000
vn 0.0000 0.2903 -0.9569
vn 0.0000 0.0980 -0.9952
vn -1.0000 0.0000 0.0000
s off
f 34//25 35//25 33//25
f 36//26 37//26 35//26
f 38//27 39//27 37//27
f 40//28 41//28 39//28
f 42//29 43//29 41//29
f 44//30 45//30 43//30
f 46//31 47//31 45//31
f 48//32 49//32 47//32
f 50//33 51//33 49//33
f 52//34 53//34 51//34
f 54//35 55//35 53//35
f 56//36 57//36 55//36
f 58//37 59//37 57//37
f 60//38 61//38 59//38
f 62//39 63//39 61//39
f 64//40 65//40 63//40
f 66//41 67//41 65//41
f 68//42 69//42 67//42
f 70//43 71//43 69//43
f 72//44 73//44 71//44
f 74//45 75//45 73//45
f 76//46 77//46 75//46
f 78//47 79//47 77//47
f 80//48 81//48 79//48
f 82//49 83//49 81//49
f 84//50 85//50 83//50
f 86//51 87//51 85//51
f 88//52 89//52 87//52
f 90//53 91//53 89//53
f 92//54 93//54 91//54
f 86//55 70//55 54//55
f 94//56 95//56 93//56
f 96//57 33//57 95//57
f 47//58 63//58 79//58
f 34//25 36//25 35//25
f 36//26 38//26 37//26
f 38//27 40//27 39//27
f 40//28 42//28 41//28
f 42//29 44//29 43//29
f 44//30 46//30 45//30
f 46//31 48//31 47//31
f 48//32 50//32 49//32
f 50//33 52//33 51//33
f 52//34 54//34 53//34
f 54//35 56//35 55//35
f 56//36 58//36 57//36
f 58//37 60//37 59//37
f 60//38 62//38 61//38
f 62//39 64//39 63//39
f 64//40 66//40 65//40
f 66//41 68//41 67//41
f 68//42 70//42 69//42
f 70//43 72//43 71//43
f 72//44 74//44 73//44
f 74//45 76//45 75//45
f 76//46 78//46 77//46
f 78//47 80//47 79//47
f 80//48 82//48 81//48
f 82//49 84//49 83//49
f 84//50 86//50 85//50
f 86//51 88//51 87//51
f 88//52 90//52 89//52
f 90//53 92//53 91//53
f 92//54 94//54 93//54
f 38//55 36//55 34//55
f 34//55 96//55 38//55
f 96//55 94//55 38//55
f 94//55 92//55 90//55
f 90//55 88//55 86//55
f 86//55 84//55 82//55
f 82//55 80//55 86//55
f 80//55 78//55 86//55
f 78//55 76//55 70//55
f 76//55 74//55 70//55
f 74//55 72//55 70//55
f 70//55 68//55 66//55
f 66//55 64//55 62//55
f 62//55 60//55 58//55
f 58//55 56//55 54//55
f 54//55 52//55 50//55
f 50//55 48//55 54//55
f 48//55 46//55 54//55
f 46//55 44//55 42//55
f 42//55 40//55 38//55
f 94//55 90//55 38//55
f 90//55 86//55 38//55
f 70//55 66//55 54//55
f 66//55 62//55 54//55
f 62//55 58//55 54//55
f 46//55 42//55 54//55
f 42//55 38//55 54//55
f 86//55 78//55 70//55
f 38//55 86//55 54//55
f 94//56 96//56 95//56
f 96//57 34//57 33//57
f 95//58 33//58 35//58
f 35//58 37//58 39//58
f 39//58 41//58 43//58
f 43//58 45//58 39//58
f 45//58 47//58 39//58
f 47//58 49//58 51//58
f 51//58 53//58 47//58
f 53//58 55//58 47//58
f 55//58 57//58 63//58
f 57//58 59//58 63//58
f 59//58 61//58 63//58
f 63//58 65//58 67//58
f 67//58 69//58 71//58
f 71//58 73//58 75//58
f 75//58 77//58 79//58
f 79//58 81//58 83//58
f 83//58 85//58 87//58
f 87//58 89//58 95//58
f 89//58 91//58 95//58
f 91//58 93//58 95//58
f 95//58 35//58 39//58
f 63//58 67//58 79//58
f 67//58 71//58 79//58
f 71//58 75//58 79//58
f 79//58 83//58 95//58
f 83//58 87//58 95//58
f 95//58 39//58 47//58
f 47//58 55//58 63//58
f 95//58 47//58 79//58
v 0.141212 2.200000 -0.780000
v 0.201212 2.200000 -0.780000
v 0.141212 2.184393 -0.778463
v 0.201212 2.184393 -0.778463
v 0.141212 2.169385 -0.773910
v 0.201212 2.169385 -0.773910
v 0.141212 2.155555 -0.766518
v 0.201212 2.155555 -0.766518
v 0.141212 2.143431 -0.756569
v 0.201212 2.143431 -0.756569
v 0.141212 2.133482 -0.744446
v 0.201212 2.133482 -0.744446
v 0.141212 2.126090 -0.730615
v 0.201212 2.126090 -0.730615
v 0.141212 2.121537 -0.715607
v 0.201212 2.121537 -0.715607
v 0.141212 2.120000 -0.700000
v 0.201212 2.120000 -0.700000
v 0.141212 2.121537 -0.684393
v 0.201212 2.121537 -0.684393
v 0.141212 2.126090 -0.669385
v 0.201212 2.126090 -0.669385
v 0.141212 2.133482 -0.655554
v 0.201212 2.133482 -0.655554
v 0.141212 2.143431 -0.643431
v 0.201212 2.143431 -0.643431
v 0.141212 2.155555 -0.633482
v 0.201212 2.155555 -0.633482
v 0.141212 2.169385 -0.626090
v 0.201212 2.169385 -0.626090
v 0.141212 2.184393 -0.621537
v 0.201212 2.184393 -0.621537
v 0.141212 2.200000 -0.620000
v 0.201212 2.200000 -0.620000
v 0.141212 2.215607 -0.621537
v 0.201212 2.215607 -0.621537
v 0.141212 2.230615 -0.626090
v 0.201212 2.230615 -0.626090
v 0.141212 2.244446 -0.633483
v 0.201212 2.244446 -0.633483
v 0.141212 2.256569 -0.643432
v 0.201212 2.256569 -0.643432
v 0.141212 2.266518 -0.655554
v 0.201212 2.266518 -0.655554
v 0.141212 2.273911 -0.669385
v 0.201212 2.273911 -0.669385
v 0.141212 2.278463 -0.684393
v 0.201212 2.278463 -0.684393
v 0.141212 2.280000 -0.700000
v 0.201212 2.280000 -0.700000
v 0.141212 2.278463 -0.715607
v 0.201212 2.278463 -0.715607
v 0.141212 2.273910 -0.730615
v 0.201212 2.273910 -0.730615
v 0.141212 2.266518 -0.744446
v 0.201212 2.266518 -0.744446
v 0.141212 2.256568 -0.756569
v 0.201212 2.256568 -0.756569
v 0.141212 2.244446 -0.766518
v 0.201212 2.244446 -0.766518
v 0.141212 2.230615 -0.773910
v 0.201212 2.230615 -0.773910
v 0.141212 2.215607 -0.778463
v 0.201212 2.215607 -0.778463
vn 0.0000 -0.0980 -0.9952
vn 0.0000 -0.2903 -0.9569
vn 0.0000 -0.4714 -0.8819
vn 0.0000 -0.6344 -0.7730
vn 0.0000 -0.7730 -0.6344
vn 0.0000 -0.8819 -0.4714
vn 0.0000 -0.9569 -0.2903
vn 0.0000 -0.9952 -0.0980
vn 0.0000 -0.9952 0.0980
vn 0.0000 -0.9569 0.2903
vn 0.0000 -0.8819 0.4714
vn 0.0000 -0.7730 0.6344
vn 0.0000 -0.6344 0.7730
vn 0.0000 -0.4714 0.8819
vn 0.0000 -0.2903 0.9569
vn 0.0000 -0.0980 0.9952
vn 0.0000 0.0980 0.9952
vn 0.0000 0.2903 0.9569
vn 0.0000 0.4714 0.8819
vn 0.0000 0.6344 0.7730
vn 0.0000 0.7730 0.6344
vn 0.0000 0.8819 0.4714
vn 0.0000 0.9569 0.2903
vn 0.0000 0.9952 0.0980
vn 0.0000 0.9952 -0.0980
vn 0.0000 0.9569 -0.2903
vn 0.0000 0.8819 -0.4714
vn 0.0000 0.7730 -0.6344
vn 0.0000 0.6344 -0.7730
vn 0.0000 0.4714 -0.8819
vn 1.0000 0.0000 0.0000
vn 0.0000 0.2903 -0.9569
vn 0.0000 0.0980 -0.9952
vn -1.0000 -0.0000 0.0000
s off
f 98//59 99//59 97//59
f 100//60 101//60 99//60
f 102//61 103//61 101//61
f 104//62 105//62 103//62
f 106//63 107//63 105//63
f 108//64 109//64 107//64
f 110//65 111//65 109//65
f 112//66 113//66 111//66
f 114//67 115//67 113//67
f 116//68 117//68 115//68
f 118//69 119//69 117//69
f 120//70 121//70 119//70
f 122//71 123//71 121//71
f 124//72 125//72 123//72
f 126//73 127//73 125//73
f 128//74 129//74 127//74
f 130//75 131//75 129//75
f 132//76 133//76 131//76
f 134//77 135//77 133//77
f 136//78 137//78 135//78
f 138//79 139//79 137//79
f 140//80 141//80 139//80
f 142//81 143//81 141//81
f 144//82 145//82 143//82
f 146//83 147//83 145//83
f 148//84 149//84 147//84
f 150//85 151//85 149//85
f 152//86 153//86 151//86
f 154//87 155//87 153//87
f 156//88 157//88 155//88
f 150//89 134//89 118//89
f 158//90 159//90 157//90
f 160//91 97//91 159//91
f 111//92 127//92 143//92
f 98//59 100//59 99//59
f 100//60 102//60 101//60
f 102//61 104//61 103//61
f 104//62 106//62 105//62
f 106//63 108//63 107//63
f 108//64 110//64 109//64
f 110//65 112//65 111//65
f 112//66 114//66 113//66
f 114//67 116//67 115//67
f 116//68 118//68 117//68
f 118//69 120//69 119//69
f 120//70 122//70 121//70
f 122//71 124//71 123//71
f 124//72 126//72 125//72
f 126//73 128//73 127//73
f 128//74 130//74 129//74
f 130//75 132//75 131//75
f 132//76 134//76 133//76
f 134//77 136//77 135//77
f 136//78 138//78 137//78
f 138//79 140//79 139//79
f 140//80 142//80 141//80
f 142//81 144//81 143//81
f 144//82 146//82 145//82
f 146//83 148//83 147//83
f 148//84 150//84 149//84
f 150//85 152//85 151//85
f 152//86 154//86 153//86
f 154//87 156//87 155//87
f 156//88 158//88 157//88
f 102//89 100//89 98//89
f 98//89 160//89 102//89
f 160//89 158//89 102//89
f 158//89 156//89 154//89
f 154//89 152//89 150//89
f 150//89 148//89 146//89
f 146//89 144//89 150//89
f 144//89 142//89 150//89
f 142//89 140//89 134//89
f 140//89 138//89 134//89
f 138//89 136//89 134//89
f 134//89 132//89 130//89
f 130//89 128//89 126//89
f 126//89 124//89 122//89
f 122//89 120//89 118//89
f 118//89 116//89 114//89
f 114//89 112//89 118//89
f 112//89 110//89 118//89
f 110//89 108//89 106//89
f 106//89 104//89 102//89
f 158//89 154//89 102//89
f 154//89 150//89 102//89
f 134//89 130//89 118//89
f 130//89 126//89 118//89
f 126//89 122//89 118//89
f 110//89 106//89 118//89
f 106//89 102//89 118//89
f 150//89 142//89 134//89
f 102//89 150//89 118//89
f 158//90 160//90 159//90
f 160//91 98//91 97//91
f 159//92 97//92 99//92
f 99//92 101//92 103//92
f 103//92 105//92 107//92
f 107//92 109//92 103//92
f 109//92 111//92 103//92
f 111//92 113//92 115//92
f 115//92 117//92 111//92
f 117//92 119//92 111//92
f 119//92 121//92 127//92
f 121//92 123//92 127//92
f 123//92 125//92 127//92
f 127//92 129//92 131//92
f 131//92 133//92 135//92
f 135//92 137//92 139//92
f 139//92 141//92 143//92
f 143//92 145//92 147//92
f 147//92 149//92 151//92
f 151//92 153//92 159//92
f 153//92 155//92 159//92
f 155//92 157//92 159//92
f 159//92 99//92 103//92
f 127//92 131//92 143//92
f 131//92 135//92 143//92
f 135//92 139//92 143//92
f 143//92 147//92 159//92
f 147//92 151//92 159//92
f 159//92 103//92 111//92
f 111//92 119//92 127//92
f 159//92 111//92 143//92
v 0.100000 0.000000 -1.000000
v 0.100000 0.000000 1.000000
v -0.100000 0.000000 1.000000
v -0.100000 0.000000 -1.000000
v 0.100000 4.000000 -0.999999
v 0.100000 4.000000 1.000001
v -0.100000 4.000000 1.000000
v -0.100000 4.000000 -1.000000
vn 0.0000 -1.0000 0.0000
vn 0.0000 1.0000 0.0000
vn 1.0000 -0.0000 0.0000
vn 0.0000 -0.0000 1.0000
vn -1.0000 -0.0000 -0.0000
vn 0.0000 0.0000 -1.0000
s off
f 162//93 164//93 161//93
f 168//94 166//94 165//94
f 165//95 162//95 161//95
f 166//96 163//96 162//96
f 163//97 168//97 164//97
f 161//98 168//98 165//98
f 162//93 163//93 164//93
f 168//94 167//94 166//94
f 165//95 166//95 162//95
f 166//96 167//96 163//96
f 163//97 167//97 168//97
f 161//98 164//98 168//98
